<svg xmlns="http://www.w3.org/2000/svg" fill="none" viewBox="0 0 30 30">
  <g clip-path="url(#a)">
    <path fill="#292929" d="M11.376 29.668V19.655H8.284v-4.6h3.092v-1.983c0-5.125 2.31-7.5 7.323-7.5.501 0 1.193.053 1.835.13.48.049.957.13 1.426.244v4.171c-.271-.025-.544-.04-.816-.045a35.022 35.022 0 0 0-.916-.011c-.884 0-1.574.12-2.094.388a2.11 2.11 0 0 0-.849.78c-.323.527-.468 1.248-.468 2.198v1.627h4.9l-.483 2.639-.359 1.962h-4.058V30C24.245 29.1 30 22.752 30 15.055 30 6.741 23.284 0 15 0 6.716 0 0 6.741 0 15.055c0 7.061 4.843 12.985 11.376 14.613Z"/>
  </g>
  <defs>
    <clipPath id="a">
      <path fill="#fff" d="M0 0h30v30H0z"/>
    </clipPath>
  </defs>
</svg>