<svg xmlns="http://www.w3.org/2000/svg" fill="none" viewBox="0 0 30 30">
    <path fill="#292929"
        d="M8.788.105c-1.596.075-2.686.33-3.64.704-.985.385-1.821.9-2.653 1.735A7.347 7.347 0 0 0 .77 5.203C.4 6.157.15 7.248.08 8.845c-.07 1.597-.086 2.11-.078 6.184.008 4.073.026 4.584.103 6.184.076 1.596.33 2.685.704 3.638.385.986.9 1.822 1.735 2.654a7.339 7.339 0 0 0 2.661 1.725c.954.369 2.045.62 3.642.69 1.596.07 2.11.086 6.183.078 4.072-.008 4.585-.026 6.184-.102 1.6-.075 2.684-.331 3.638-.704a7.35 7.35 0 0 0 2.653-1.735 7.353 7.353 0 0 0 1.725-2.66c.37-.954.62-2.045.69-3.64.07-1.602.086-2.113.078-6.186-.008-4.073-.026-4.583-.102-6.183-.076-1.6-.33-2.686-.704-3.64a7.365 7.365 0 0 0-1.735-2.653 7.321 7.321 0 0 0-2.66-1.724C23.843.4 22.752.15 21.156.08 19.559.01 19.046-.006 14.97 0c-4.073.009-4.584.026-6.183.104Zm.175 27.116c-1.463-.063-2.257-.306-2.786-.51a4.67 4.67 0 0 1-1.727-1.118 4.62 4.62 0 0 1-1.125-1.723c-.206-.53-.453-1.322-.522-2.785-.074-1.58-.09-2.055-.099-6.06-.008-4.005.007-4.479.076-6.06.063-1.461.307-2.256.51-2.785.27-.702.596-1.2 1.12-1.727a4.63 4.63 0 0 1 1.722-1.125c.529-.207 1.322-.452 2.784-.522 1.582-.075 2.056-.09 6.06-.099 4.004-.008 4.48.007 6.062.076 1.461.064 2.256.306 2.785.51.7.27 1.2.595 1.727 1.12a4.627 4.627 0 0 1 1.125 1.723c.207.527.453 1.32.521 2.782.076 1.582.093 2.057.1 6.06.007 4.004-.007 4.48-.076 6.06-.064 1.463-.306 2.257-.51 2.787-.27.7-.596 1.2-1.12 1.727a4.632 4.632 0 0 1-1.722 1.125c-.528.206-1.322.452-2.783.522-1.582.074-2.056.09-6.062.098-4.005.01-4.478-.007-6.06-.076ZM21.19 6.983a1.8 1.8 0 1 0 3.6-.006 1.8 1.8 0 0 0-3.6.006ZM7.298 15.015a7.703 7.703 0 1 0 15.403-.033 7.703 7.703 0 0 0-15.403.033ZM10 15.01a5 5 0 1 1 10-.02 5 5 0 0 1-10 .02Z" />
</svg>